HIERARCHY
ROOT Hips
{
	OFFSET 0.000000 0.000000 0.000000
	CHANNELS 6 Xposition Yposition Zposition Zrotation Xrotation Yrotation
	JOINT LHipJoint
	{
		OFFSET 0.000000 0.000000 0.000000
		CHANNELS 3 Zrotation Xrotation Yrotation
		JOINT LeftUpLeg
		{
			OFFSET 0.076937 -0.101296 0.047373
			CHANNELS 3 Zrotation Xrotation Yrotation
			JOINT LeftLeg
			{
				OFFSET 0.138181 -0.379650 0.000000
				CHANNELS 3 Zrotation Xrotation Yrotation
				JOINT LeftFoot
				{
					OFFSET 0.144621 -0.397343 0.000000
					CHANNELS 3 Zrotation Xrotation Yrotation
					JOINT LeftToeBase
					{
						OFFSET 0.008898 -0.024446 0.131094
						CHANNELS 3 Zrotation Xrotation Yrotation
						JOINT End_Site
						{
							OFFSET 0.000000 -0.000000 0.067149
							CHANNELS 3 Zrotation Xrotation Yrotation
							End Site
							{
								OFFSET 0.000000 -0.000000 0.020145
							}
						}
					}
				}
			}
		}
	}
	JOINT RHipJoint
	{
		OFFSET 0.000000 0.000000 0.000000
		CHANNELS 3 Zrotation Xrotation Yrotation
		JOINT RightUpLeg
		{
			OFFSET -0.073689 -0.101296 0.047373
			CHANNELS 3 Zrotation Xrotation Yrotation
			JOINT RightLeg
			{
				OFFSET -0.143511 -0.394292 0.000000
				CHANNELS 3 Zrotation Xrotation Yrotation
				JOINT RightFoot
				{
					OFFSET -0.144963 -0.398282 0.000000
					CHANNELS 3 Zrotation Xrotation Yrotation
					JOINT RightToeBase
					{
						OFFSET -0.009298 -0.025546 0.133386
						CHANNELS 3 Zrotation Xrotation Yrotation
						JOINT End_Site
						{
							OFFSET -0.000000 -0.000000 0.068344
							CHANNELS 3 Zrotation Xrotation Yrotation
							End Site
							{
								OFFSET -0.000000 -0.000000 0.020503
							}
						}
					}
				}
			}
		}
	}
	JOINT LowerBack
	{
		OFFSET 0.000000 0.000000 0.000000
		CHANNELS 3 Zrotation Xrotation Yrotation
		JOINT Spine
		{
			OFFSET 0.001596 0.114897 -0.010915
			CHANNELS 3 Zrotation Xrotation Yrotation
			JOINT Spine1
			{
				OFFSET 0.003202 0.115645 -0.002413
				CHANNELS 3 Zrotation Xrotation Yrotation
				JOINT Neck
				{
					OFFSET 0.000000 0.000000 0.000000
					CHANNELS 3 Zrotation Xrotation Yrotation
					JOINT Neck1
					{
						OFFSET -0.003058 0.098565 0.009709
						CHANNELS 3 Zrotation Xrotation Yrotation
						JOINT Head
						{
							OFFSET 0.005874 0.099418 -0.006997
							CHANNELS 3 Zrotation Xrotation Yrotation
							JOINT End_Site
							{
								OFFSET 0.002100 0.099931 -0.003523
								CHANNELS 3 Zrotation Xrotation Yrotation
								End Site
								{
									OFFSET 0.000630 0.029979 -0.001057
								}
							}
						}
					}
				}
				JOINT LeftShoulder
				{
					OFFSET 0.000000 0.000000 0.000000
					CHANNELS 3 Zrotation Xrotation Yrotation
					JOINT LeftArm
					{
						OFFSET 0.189788 0.067783 -0.017566
						CHANNELS 3 Zrotation Xrotation Yrotation
						JOINT LeftForeArm
						{
							OFFSET 0.281260 -0.000000 -0.000000
							CHANNELS 3 Zrotation Xrotation Yrotation
							JOINT LeftHand
							{
								OFFSET 0.196626 -0.000000 -0.000000
								CHANNELS 3 Zrotation Xrotation Yrotation
								JOINT LeftFingerBase
								{
									OFFSET 0.000000 0.000000 0.000000
									CHANNELS 3 Zrotation Xrotation Yrotation
									JOINT LeftHandIndex1
									{
										OFFSET 0.040372 -0.000000 -0.000000
										CHANNELS 3 Zrotation Xrotation Yrotation
										JOINT End_Site
										{
											OFFSET 0.032549 -0.000000 -0.000000
											CHANNELS 3 Zrotation Xrotation Yrotation
											End Site
											{
												OFFSET 0.009765 -0.000000 -0.000000
											}
										}
									}
								}
								JOINT LThumb
								{
									OFFSET 0.000000 0.000000 0.000000
									CHANNELS 3 Zrotation Xrotation Yrotation
									JOINT End_Site
									{
										OFFSET 0.033046 -0.000000 0.033046
										CHANNELS 3 Zrotation Xrotation Yrotation
										End Site
										{
											OFFSET 0.009914 -0.000000 0.009914
										}
									}
								}
							}
						}
					}
				}
				JOINT RightShoulder
				{
					OFFSET 0.000000 0.000000 0.000000
					CHANNELS 3 Zrotation Xrotation Yrotation
					JOINT RightArm
					{
						OFFSET -0.177042 0.077557 -0.022840
						CHANNELS 3 Zrotation Xrotation Yrotation
						JOINT RightForeArm
						{
							OFFSET -0.295874 -0.000000 -0.000000
							CHANNELS 3 Zrotation Xrotation Yrotation
							JOINT RightHand
							{
								OFFSET -0.194403 -0.000000 -0.000000
								CHANNELS 3 Zrotation Xrotation Yrotation
								JOINT RightFingerBase
								{
									OFFSET 0.000000 0.000000 0.000000
									CHANNELS 3 Zrotation Xrotation Yrotation
									JOINT RightHandIndex1
									{
										OFFSET -0.035138 -0.000000 -0.000000
										CHANNELS 3 Zrotation Xrotation Yrotation
										JOINT End_Site
										{
											OFFSET -0.028329 -0.000000 -0.000000
											CHANNELS 3 Zrotation Xrotation Yrotation
											End Site
											{
												OFFSET -0.008499 -0.000000 -0.000000
											}
										}
									}
								}
								JOINT RThumb
								{
									OFFSET 0.000000 0.000000 0.000000
									CHANNELS 3 Zrotation Xrotation Yrotation
									JOINT End_Site
									{
										OFFSET -0.028762 -0.000000 0.028762
										CHANNELS 3 Zrotation Xrotation Yrotation
										End Site
										{
											OFFSET -0.008628 -0.000000 0.008628
										}
									}
								}
							}
						}
					}
				}
			}
		}
	}
}
MOTION
Frames: 10
Frame Time: 0.03333333
-0.015071 1.011618 0.661841 0.000000 0.000000 0.000000 -3.390365 -0.912209 -2.349625 -11.744835 -9.255501 -4.496201 -7.074699 28.135168 12.458358 1.806344 -15.834286 2.362427 -0.040019 -3.758807 -1.219548 0.000000 0.000000 0.000000 -3.802063 -0.428339 -1.443904 22.420282 -11.750214 7.134843 3.567702 29.574711 -12.044444 -2.430410 -13.390229 -4.983397 0.116388 5.913939 -2.252907 0.000000 0.000000 0.000000 1.282404 14.039401 -0.234823 4.506004 1.604590 -0.013508 0.000000 0.000000 0.000000 -3.441675 -16.555955 -0.689449 3.119443 3.399563 -0.074180 2.241910 2.591373 -0.026164 0.000000 0.000000 0.000000 1.222536 -0.596727 2.052335 -86.163829 -2.400936 2.567266 -11.868604 8.559530 -71.503986 0.000000 0.000000 0.000000 13.263189 -3.065363 -25.920766 -6.503479 -0.164698 2.898259 0.000000 0.000000 0.000000 -13.814208 10.197433 17.252971 0.000000 0.000000 0.000000 2.689113 -1.450008 -2.349095 80.205699 3.282469 3.897227 -1.179058 -0.791358 67.736242 0.000000 0.000000 0.000000 -23.290006 1.872258 -9.066537 6.885872 -0.109605 -1.821650 0.000000 0.000000 0.000000 5.674713 2.306024 -45.796744 0.000000 0.000000 0.000000
-0.015821 1.012356 0.662433 0.000000 0.000000 0.000000 -3.422554 -0.248594 -1.837000 -11.935152 -8.849470 -4.316522 -5.923551 26.361738 11.333338 1.662026 -16.646489 1.706516 -0.043278 -3.867371 -1.281806 0.000000 0.000000 0.000000 -3.453744 0.224221 -1.735435 21.950486 -12.109117 7.286110 3.638338 28.979563 -11.814059 -2.219901 -13.913043 -4.118523 0.214740 8.124827 -3.022897 0.000000 0.000000 0.000000 0.791687 15.008611 -0.241765 4.438762 1.509070 -0.007614 0.000000 0.000000 0.000000 -3.144368 -16.367865 -0.663686 3.198546 2.959929 -0.032516 2.262680 2.385467 -0.017493 0.000000 0.000000 0.000000 1.508063 -0.646950 2.291583 -85.732633 -1.462975 1.576192 -10.153212 7.935405 -75.963162 0.000000 0.000000 0.000000 14.042264 -3.244013 -25.897010 -6.633496 -0.150094 2.589487 0.000000 0.000000 0.000000 -12.947462 9.804527 15.830557 0.000000 0.000000 0.000000 3.007765 -1.422704 -2.185268 79.987997 4.945957 5.894077 -3.112392 -2.196315 70.412103 0.000000 0.000000 0.000000 -23.375084 1.786261 -8.619387 6.956517 -0.093125 -1.532034 0.000000 0.000000 0.000000 5.172503 2.185648 -44.209821 0.000000 0.000000 0.000000
-0.016024 1.011182 0.662280 0.000000 0.000000 0.000000 -4.022238 0.430120 -1.585010 -11.323099 -9.479054 -4.562131 -5.806461 26.465198 11.346990 1.625237 -17.166467 1.469122 -0.063263 -4.629035 -1.565129 0.000000 0.000000 0.000000 -3.751737 0.638744 -2.152995 22.192361 -12.444991 7.524978 3.886151 28.763975 -11.796013 -2.129058 -14.086413 -3.768897 0.191541 7.667569 -2.857705 0.000000 0.000000 0.000000 0.480100 16.213295 -0.252895 4.514943 1.418247 -0.000922 0.000000 0.000000 0.000000 -3.207184 -16.688352 -0.686393 3.250361 2.824144 -0.018273 2.265853 2.354197 -0.016170 0.000000 0.000000 0.000000 1.428770 -0.777401 2.643884 -85.187088 0.398848 -0.433842 -6.833817 5.736785 -80.005123 0.000000 0.000000 0.000000 16.073089 -3.611105 -25.171609 -6.783149 -0.128639 2.170374 0.000000 0.000000 0.000000 -11.030407 8.545834 14.535087 0.000000 0.000000 0.000000 3.018767 -1.361100 -2.051308 79.667954 6.518345 7.810455 -5.305098 -3.991704 73.900573 0.000000 0.000000 0.000000 -22.147360 1.961438 -9.997434 7.009300 -0.077952 -1.272760 0.000000 0.000000 0.000000 5.991841 2.514790 -44.494896 0.000000 0.000000 0.000000
-0.016894 1.010330 0.660462 0.000000 0.000000 0.000000 -3.930163 1.025463 -1.056591 -11.603342 -10.739675 -5.203822 -5.727494 27.355821 11.718375 1.507636 -17.135251 1.119101 -0.049579 -4.103607 -1.383819 0.000000 0.000000 0.000000 -3.393596 0.973148 -2.227217 22.062970 -13.043457 7.868728 3.812196 29.218409 -11.967077 -2.250207 -14.556513 -4.007488 0.055686 4.040335 -1.578595 0.000000 0.000000 0.000000 0.183815 17.074646 -0.252641 4.263432 1.665979 -0.019167 0.000000 0.000000 0.000000 -2.885704 -16.321980 -0.649035 3.363218 2.053833 0.055281 2.231182 2.060985 -0.004791 0.000000 0.000000 0.000000 1.461260 -0.819405 2.776957 -84.626043 2.405947 -2.642814 -2.233718 2.015630 -84.122681 0.000000 0.000000 0.000000 18.584169 -3.874345 -23.359706 -6.903227 -0.105850 1.754811 0.000000 0.000000 0.000000 -8.789539 6.833693 14.314437 0.000000 0.000000 0.000000 3.012548 -1.250405 -1.819004 79.647089 8.593565 10.297259 -8.571562 -6.699364 75.980535 0.000000 0.000000 0.000000 -21.240990 1.826829 -9.719750 7.066533 -0.055907 -0.905431 0.000000 0.000000 0.000000 6.250168 2.733503 -42.789552 0.000000 0.000000 0.000000
-0.017785 1.008439 0.658718 0.000000 0.000000 0.000000 -4.138450 1.457696 -0.803185 -11.187161 -11.904282 -5.717785 -6.462930 28.375137 12.386776 1.497651 -17.674221 0.968190 -0.069457 -4.820230 -1.650118 0.000000 0.000000 0.000000 -3.491167 0.934007 -2.242748 22.354950 -13.322347 8.084216 3.857756 29.779052 -12.219393 -2.283160 -15.152052 -3.923496 0.054777 4.011804 -1.563893 0.000000 0.000000 0.000000 -0.285680 17.808107 -0.235202 4.350989 2.120264 -0.048498 0.000000 0.000000 0.000000 -3.270449 -15.963750 -0.644349 3.909862 1.555742 0.130651 2.518598 1.881133 0.007921 0.000000 0.000000 0.000000 1.699552 -0.906362 3.113919 -83.984757 4.631713 -5.144759 2.392682 -2.289309 -87.469657 0.000000 0.000000 0.000000 22.414724 -4.241513 -21.172294 -6.993388 -0.082922 1.356989 0.000000 0.000000 0.000000 -5.527877 4.281204 14.503442 0.000000 0.000000 0.000000 3.192986 -1.049542 -1.337330 78.930824 10.065853 12.210998 -11.373130 -9.346429 78.766534 0.000000 0.000000 0.000000 -20.932564 2.002197 -10.807425 7.104634 -0.033244 -0.535499 0.000000 0.000000 0.000000 5.857183 2.580934 -42.468865 0.000000 0.000000 0.000000
-0.018017 1.006283 0.656883 0.000000 0.000000 0.000000 -4.900791 1.949886 -0.759484 -10.151866 -13.350850 -6.269314 -7.463237 29.823418 13.354676 1.566996 -18.528502 0.987320 -0.084762 -5.296839 -1.832274 0.000000 0.000000 0.000000 -4.116364 0.951436 -2.527197 23.241155 -13.735061 8.481870 3.984470 30.470788 -12.554224 -2.312986 -15.246887 -3.987275 0.029285 2.876899 -1.166199 0.000000 0.000000 0.000000 -0.369460 18.736211 -0.240453 4.306511 2.169956 -0.051853 0.000000 0.000000 0.000000 -3.427766 -15.781620 -0.639454 4.038006 1.688545 0.125411 2.475301 1.867652 0.007679 0.000000 0.000000 0.000000 1.196210 -1.143326 3.618525 -82.354936 7.028992 -8.032439 6.856608 -6.843711 -89.891870 0.000000 0.000000 0.000000 24.780804 -4.346582 -19.601250 -7.098886 -0.037427 0.603370 0.000000 0.000000 0.000000 -2.945754 2.348710 12.872348 0.000000 0.000000 0.000000 2.752558 -0.832905 -1.012817 78.215157 11.388643 13.986376 -13.685829 -11.836159 81.641300 0.000000 0.000000 0.000000 -21.504236 2.208555 -11.592184 7.123330 -0.009723 -0.156214 0.000000 0.000000 0.000000 4.527176 2.021115 -41.901941 0.000000 0.000000 0.000000
-0.018559 1.003969 0.655326 0.000000 0.000000 0.000000 -5.158593 2.308098 -0.582264 -9.757764 -14.586111 -6.792913 -8.181512 31.025310 14.149140 1.540942 -18.850700 0.842114 -0.081816 -5.196022 -1.802954 0.000000 0.000000 0.000000 -4.167852 1.342839 -2.818333 23.495758 -14.781335 9.177599 4.464344 31.544713 -13.171401 -2.269541 -15.770559 -3.691302 0.050430 3.850293 -1.500223 0.000000 0.000000 0.000000 -0.570169 19.983514 -0.238058 4.098251 2.041795 -0.044104 0.000000 0.000000 0.000000 -3.703940 -16.171460 -0.676543 4.569991 1.923622 0.131856 2.654663 1.937296 0.008003 0.000000 0.000000 0.000000 0.920776 -1.416890 4.298362 -80.400431 9.302944 -10.998811 11.285971 -11.689781 -92.027345 0.000000 0.000000 0.000000 26.836225 -4.446987 -18.487627 -7.124645 -0.003668 0.058921 0.000000 0.000000 0.000000 -0.767095 0.624064 11.740693 0.000000 0.000000 0.000000 2.605580 -0.662381 -0.692403 76.809992 13.557879 17.055899 -17.307184 -15.373527 83.135587 0.000000 0.000000 0.000000 -19.955791 2.255802 -12.770734 7.117989 0.019500 0.313531 0.000000 0.000000 0.000000 4.973477 2.249101 -41.354713 0.000000 0.000000 0.000000
-0.018908 1.001174 0.652955 0.000000 0.000000 0.000000 -5.246519 2.880899 -0.141336 -9.698020 -16.170661 -7.527944 -8.903879 32.362013 15.032723 1.437836 -19.316496 0.447256 -0.078677 -5.079283 -1.773694 0.000000 0.000000 0.000000 -3.965586 1.795395 -3.044248 23.464092 -16.112330 10.004314 5.237104 33.002997 -14.072437 -2.353911 -16.654978 -3.685485 0.019363 2.321682 -0.955565 0.000000 0.000000 0.000000 -0.867419 21.129094 -0.221333 3.958994 2.177446 -0.052987 0.000000 0.000000 0.000000 -3.675150 -16.139427 -0.673151 4.803462 1.402670 0.197224 2.718969 1.750021 0.017574 0.000000 0.000000 0.000000 0.940840 -1.641761 4.946775 -78.528059 11.941545 -14.582303 16.505783 -17.200258 -92.395061 0.000000 0.000000 0.000000 29.844427 -4.259671 -15.888832 -7.105406 0.032542 -0.524141 0.000000 0.000000 0.000000 2.287359 -1.853504 11.965145 0.000000 0.000000 0.000000 2.624934 -0.395602 -0.114716 74.646418 15.050148 19.658683 -20.390247 -18.755391 85.123013 0.000000 0.000000 0.000000 -19.178024 2.250511 -13.263516 7.083323 0.047422 0.766186 0.000000 0.000000 0.000000 4.622940 2.142445 -40.289060 0.000000 0.000000 0.000000
-0.018451 0.996980 0.650093 0.000000 0.000000 0.000000 -5.520175 3.570575 0.317655 -9.577685 -18.231576 -8.476138 -9.867762 34.114308 16.236095 1.468211 -20.041682 0.390957 -0.132049 -6.532954 -2.313392 0.000000 0.000000 0.000000 -3.889773 2.362197 -3.405923 23.624040 -17.700760 11.034014 6.135527 34.737125 -15.174669 -2.382161 -17.449795 -3.539661 0.014761 2.016492 -0.838721 0.000000 0.000000 0.000000 -1.259272 22.719895 -0.189955 4.106383 2.129190 -0.049642 0.000000 0.000000 0.000000 -3.632184 -17.010291 -0.728450 4.703222 1.315700 0.200085 2.712580 1.825052 0.014090 0.000000 0.000000 0.000000 1.182814 -1.751015 5.357533 -76.325380 14.477944 -18.362708 22.062486 -22.731095 -91.754646 0.000000 0.000000 0.000000 29.983416 -3.596196 -13.372337 -7.044267 0.065524 -1.064523 0.000000 0.000000 0.000000 3.382767 -2.710892 12.589634 0.000000 0.000000 0.000000 2.970467 -0.379809 0.016809 71.485741 16.644484 22.977744 -23.718682 -22.223995 86.171659 0.000000 0.000000 0.000000 -18.184571 2.226256 -13.844964 7.035503 0.068877 1.120393 0.000000 0.000000 0.000000 4.645647 2.183492 -39.671032 0.000000 0.000000 0.000000
-0.017842 0.991634 0.647360 0.000000 0.000000 0.000000 -5.634187 4.534591 1.093185 -9.892612 -20.659481 -9.692424 -10.868984 36.237590 17.690146 1.297100 -21.130599 -0.290070 -0.171567 -7.391389 -2.655712 0.000000 0.000000 0.000000 -3.538580 3.047915 -3.740138 23.445606 -19.654539 12.223676 7.622486 36.778388 -16.692007 -2.701544 -18.788651 -4.086498 0.006682 -1.652134 0.463433 0.000000 0.000000 0.000000 -1.257206 24.342671 -0.195491 3.887921 2.197696 -0.054369 0.000000 0.000000 0.000000 -3.541007 -17.853805 -0.778606 4.746364 0.900550 0.244456 2.668887 1.815949 0.013648 0.000000 0.000000 0.000000 0.979955 -1.864084 5.595704 -73.893121 16.486656 -21.806459 27.489235 -27.648527 -90.344179 0.000000 0.000000 0.000000 32.532818 -3.361147 -11.483994 -6.934735 0.098628 -1.627658 0.000000 0.000000 0.000000 6.279296 -5.048996 12.416352 0.000000 0.000000 0.000000 2.795306 -0.293171 0.152666 68.563914 18.032815 26.206891 -27.746768 -26.239069 86.679228 0.000000 0.000000 0.000000 -17.273568 2.251822 -14.745086 6.955331 0.093483 1.538179 0.000000 0.000000 0.000000 4.340836 2.061337 -39.213082 0.000000 0.000000 0.000000
